<svg xmlns="http://www.w3.org/2000/svg" viewBox="0 0 640 400" role="img" aria-labelledby="title desc">
  <title id="title">JevReader PDF reading workspace</title>
  <desc id="desc">A warm three-column reading workspace with a document outline, highlighted PDF page and an essential extract panel.</desc>
  <rect width="640" height="400" rx="22" fill="#f4f0e8"/>
  <rect x="18" y="18" width="604" height="364" rx="16" fill="#faf8f3" stroke="#d8d0c4"/>
  <rect x="18" y="18" width="604" height="42" rx="16" fill="#fffdf8"/>
  <path d="M18 60h604" stroke="#ded8ce"/>
  <text x="36" y="45" fill="#24231f" font-family="Georgia,serif" font-size="16" font-weight="600">Jev<tspan fill="#817b70">Reader</tspan></text>
  <rect x="386" y="30" width="82" height="18" rx="9" fill="#f0ece4"/>
  <circle cx="398" cy="39" r="3" fill="#4b9d64"/>
  <text x="407" y="43" fill="#6d675e" font-family="monospace" font-size="8">Analysis ready</text>
  <rect x="478" y="29" width="44" height="20" rx="6" fill="#fffdf9" stroke="#d0c9bd"/>
  <text x="489" y="43" fill="#4c4740" font-family="monospace" font-size="8">Open</text>
  <rect x="532" y="29" width="70" height="20" rx="6" fill="#fffdf9" stroke="#d0c9bd"/>
  <text x="540" y="43" fill="#4c4740" font-family="monospace" font-size="8">Export</text>

  <rect x="18" y="60" width="132" height="322" fill="#faf8f3"/>
  <path d="M150 60v322" stroke="#ded8ce"/>
  <text x="34" y="88" fill="#787167" font-family="monospace" font-size="9" letter-spacing="1.2">CONTENTS</text>
  <rect x="30" y="101" width="105" height="28" rx="7" fill="#eee9df"/>
  <text x="40" y="119" fill="#24231f" font-family="Arial,sans-serif" font-size="10">1  Introduction</text>
  <text x="40" y="151" fill="#585249" font-family="Arial,sans-serif" font-size="10">2  Foundations</text>
  <text x="40" y="179" fill="#585249" font-family="Arial,sans-serif" font-size="10">3  Key ideas</text>
  <text x="40" y="207" fill="#585249" font-family="Arial,sans-serif" font-size="10">4  Application</text>
  <text x="40" y="235" fill="#585249" font-family="Arial,sans-serif" font-size="10">5  Conclusion</text>

  <rect x="150" y="60" width="286" height="322" fill="#e9e4da"/>
  <rect x="196" y="78" width="194" height="274" fill="#fff" stroke="#eee9e0"/>
  <text x="216" y="106" fill="#2e2a25" font-family="Georgia,serif" font-size="13" font-weight="600">Chapter 1</text>
  <rect x="216" y="122" width="142" height="7" rx="3" fill="#d8d2c9"/>
  <rect x="216" y="136" width="157" height="7" rx="3" fill="#d8d2c9"/>
  <rect x="216" y="150" width="120" height="7" rx="3" fill="#f4d35e" fill-opacity=".65"/>
  <rect x="216" y="164" width="160" height="7" rx="3" fill="#d8d2c9"/>
  <rect x="216" y="178" width="148" height="7" rx="3" fill="#7dc4e4" fill-opacity=".65"/>
  <rect x="216" y="192" width="131" height="7" rx="3" fill="#d8d2c9"/>
  <rect x="216" y="206" width="154" height="7" rx="3" fill="#b58ce6" fill-opacity=".65"/>
  <rect x="216" y="220" width="112" height="7" rx="3" fill="#d8d2c9"/>
  <rect x="216" y="234" width="157" height="7" rx="3" fill="#88c999" fill-opacity=".65"/>
  <rect x="216" y="248" width="146" height="7" rx="3" fill="#d8d2c9"/>
  <rect x="216" y="262" width="128" height="7" rx="3" fill="#d8d2c9"/>
  <rect x="216" y="290" width="98" height="7" rx="3" fill="#d8d2c9"/>
  <rect x="216" y="304" width="155" height="7" rx="3" fill="#ef8b8b" fill-opacity=".65"/>
  <text x="280" y="337" fill="#aaa195" font-family="monospace" font-size="8">PAGE 1</text>

  <path d="M436 60v322" stroke="#ded8ce"/>
  <rect x="436" y="60" width="186" height="322" fill="#faf8f3"/>
  <text x="454" y="88" fill="#787167" font-family="monospace" font-size="9" letter-spacing="1.2">ESSENTIAL EXTRACT</text>
  <rect x="452" y="105" width="154" height="70" rx="9" fill="#fffdf9" stroke="#e4ded4"/>
  <circle cx="463" cy="119" r="3" fill="#d4a500"/>
  <text x="474" y="122" fill="#827b70" font-family="monospace" font-size="7">CORE CONCEPT</text>
  <text x="462" y="141" fill="#49443e" font-family="Georgia,serif" font-size="9">The central idea stays</text>
  <text x="462" y="154" fill="#49443e" font-family="Georgia,serif" font-size="9">in the author's words.</text>
  <text x="462" y="166" fill="#827b70" font-family="monospace" font-size="7">Page 1</text>
  <rect x="452" y="185" width="154" height="70" rx="9" fill="#fffdf9" stroke="#e4ded4"/>
  <circle cx="463" cy="199" r="3" fill="#2c94c1"/>
  <text x="474" y="202" fill="#827b70" font-family="monospace" font-size="7">DEFINITION</text>
  <text x="462" y="221" fill="#49443e" font-family="Georgia,serif" font-size="9">Original passages are</text>
  <text x="462" y="234" fill="#49443e" font-family="Georgia,serif" font-size="9">never rewritten.</text>
  <text x="462" y="246" fill="#827b70" font-family="monospace" font-size="7">Page 1</text>
  <rect x="452" y="265" width="154" height="45" rx="9" fill="#f0ece4"/>
  <text x="464" y="284" fill="#777167" font-family="monospace" font-size="8">FOCUS MODE</text>
  <text x="464" y="299" fill="#24231f" font-family="monospace" font-size="10">5%   10%   20%   40%   Full</text>
</svg>
